<svg xmlns="http://www.w3.org/2000/svg" viewBox="0 0 500 800" role="img" aria-labelledby="t d"><title id="t">Una vista lamentable</title><desc id="d">Grabado en línea: Macbeth, de frente, mira sus manos manchadas de sangre; Lady Macbeth, a su lado, lo sostiene del brazo; dos dagas sobre un banco; una ventana estrecha con luz de luna.</desc><rect width="500" height="800" fill="#0a0c10"/><g fill="none" stroke="#efebe2" stroke-linecap="round">
<path d="M67 97 l-3 39" stroke-width="0.71" opacity="0.51"/>
<path d="M394 0 l4 36" stroke-width="0.93" opacity="0.25"/>
<path d="M223 25 l5 56" stroke-width="0.42" opacity="0.26"/>
<path d="M271 54 l-3 36" stroke-width="0.42" opacity="0.34"/>
<path d="M219 17 l-3 27" stroke-width="0.72" opacity="0.37"/>
<path d="M11 70 l2 26" stroke-width="1.09" opacity="0.59"/>
<path d="M60 36 l3 57" stroke-width="0.70" opacity="0.58"/>
<path d="M335 27 l5 54" stroke-width="0.75" opacity="0.49"/>
<path d="M17 29 l-1 25" stroke-width="0.78" opacity="0.53"/>
<path d="M337 25 l0 51" stroke-width="0.76" opacity="0.41"/>
<path d="M245 0 l2 59" stroke-width="0.82" opacity="0.41"/>
<path d="M85 74 l3 41" stroke-width="1.00" opacity="0.34"/>
<path d="M257 83 l-0 29" stroke-width="0.78" opacity="0.63"/>
<path d="M3 96 l5 49" stroke-width="0.97" opacity="0.46"/>
<path d="M281 4 l4 42" stroke-width="0.54" opacity="0.45"/>
<path d="M242 19 l0 44" stroke-width="0.83" opacity="0.43"/>
<path d="M14 6 l1 54" stroke-width="0.96" opacity="0.57"/>
<path d="M408 32 l2 21" stroke-width="0.41" opacity="0.26"/>
<path d="M378 4 l1 32" stroke-width="0.45" opacity="0.31"/>
<path d="M264 7 l3 37" stroke-width="0.63" opacity="0.44"/>
<path d="M12 24 l-4 23" stroke-width="1.03" opacity="0.45"/>
<path d="M105 74 l-6 19" stroke-width="0.50" opacity="0.54"/>
<path d="M80 72 l1 27" stroke-width="1.08" opacity="0.57"/>
<path d="M258 22 l-1 42" stroke-width="0.62" opacity="0.50"/>
<path d="M29 43 l5 31" stroke-width="1.00" opacity="0.37"/>
<path d="M470 46 l-3 18" stroke-width="1.02" opacity="0.27"/>
<path d="M410 82 l-4 54" stroke-width="1.08" opacity="0.53"/>
<path d="M254 20 l-4 46" stroke-width="0.70" opacity="0.33"/>
<path d="M52 30 l-0 32" stroke-width="1.01" opacity="0.61"/>
<path d="M9 10 l6 51" stroke-width="0.64" opacity="0.34"/>
<path d="M337 117 l-2 55" stroke-width="0.88" opacity="0.44"/>
<path d="M493 26 l-5 25" stroke-width="1.04" opacity="0.34"/>
<path d="M380 76 l-2 32" stroke-width="0.60" opacity="0.60"/>
<path d="M302 127 l-4 41" stroke-width="0.47" opacity="0.27"/>
<path d="M37 102 l4 32" stroke-width="0.83" opacity="0.56"/>
<path d="M189 19 l-5 29" stroke-width="1.02" opacity="0.48"/>
<path d="M463 19 l3 53" stroke-width="0.41" opacity="0.52"/>
<path d="M46 15 l-6 28" stroke-width="1.09" opacity="0.42"/>
<path d="M58 6 l3 22" stroke-width="1.04" opacity="0.40"/>
<path d="M485 40 l-3 38" stroke-width="0.47" opacity="0.51"/>
<path d="M20 2 l-2 43" stroke-width="0.71" opacity="0.38"/>
<path d="M31 133 l6 23" stroke-width="0.55" opacity="0.50"/>
<path d="M490 56 l2 29" stroke-width="0.78" opacity="0.37"/>
<path d="M123 3 l6 37" stroke-width="0.86" opacity="0.51"/>
<path d="M470 18 l-2 31" stroke-width="0.99" opacity="0.61"/>
<path d="M151 27 l1 43" stroke-width="0.57" opacity="0.26"/>
<path d="M122 6 l-5 21" stroke-width="0.84" opacity="0.37"/>
<path d="M396 64 l-4 39" stroke-width="0.96" opacity="0.28"/>
<path d="M475 20 l6 53" stroke-width="0.62" opacity="0.29"/>
<path d="M257 40 l5 24" stroke-width="1.04" opacity="0.26"/>
<path d="M158 109 l5 53" stroke-width="0.92" opacity="0.53"/>
<path d="M89 10 l3 46" stroke-width="0.58" opacity="0.28"/>
<path d="M482 67 l0 54" stroke-width="0.72" opacity="0.41"/>
<path d="M169 1 l2 36" stroke-width="0.80" opacity="0.27"/>
<path d="M177 3 l-3 53" stroke-width="0.68" opacity="0.41"/>
<path d="M306 0 l0 39" stroke-width="0.85" opacity="0.43"/>
<path d="M343 26 l-0 38" stroke-width="0.56" opacity="0.41"/>
<path d="M280 125 l-3 45" stroke-width="0.43" opacity="0.28"/>
<path d="M256 21 l3 55" stroke-width="0.62" opacity="0.53"/>
<path d="M424 39 l3 43" stroke-width="1.00" opacity="0.61"/>
<path d="M480 15 l-3 27" stroke-width="0.80" opacity="0.55"/>
<path d="M26 73 l-2 40" stroke-width="0.52" opacity="0.54"/>
<path d="M20 119 l2 29" stroke-width="1.04" opacity="0.63"/>
<path d="M70 98 l2 47" stroke-width="0.71" opacity="0.62"/>
<path d="M486 46 l-1 25" stroke-width="0.63" opacity="0.30"/>
<path d="M454 17 l1 35" stroke-width="0.48" opacity="0.37"/>
<path d="M124 0 l-4 36" stroke-width="0.41" opacity="0.50"/>
<path d="M303 26 l-3 41" stroke-width="0.59" opacity="0.48"/>
<path d="M125 81 l4 59" stroke-width="0.78" opacity="0.45"/>
<path d="M428 66 l-1 30" stroke-width="0.48" opacity="0.57"/>
<path d="M59 61 l6 50" stroke-width="1.08" opacity="0.30"/>
<path d="M250 27 l0 33" stroke-width="0.77" opacity="0.25"/>
<path d="M221 21 l-1 51" stroke-width="0.88" opacity="0.45"/>
<path d="M324 12 l-6 30" stroke-width="0.82" opacity="0.60"/>
<path d="M415 76 l-0 53" stroke-width="0.69" opacity="0.55"/>
<path d="M494 8 l1 40" stroke-width="0.65" opacity="0.25"/>
<path d="M195 26 l4 43" stroke-width="0.91" opacity="0.61"/>
<path d="M374 55 l2 45" stroke-width="0.84" opacity="0.41"/>
<path d="M315 89 l3 54" stroke-width="0.94" opacity="0.58"/>
<path d="M303 14 l2 55" stroke-width="0.78" opacity="0.31"/>
<path d="M416 34 l-5 39" stroke-width="0.92" opacity="0.42"/>
<path d="M178 2 l0 58" stroke-width="0.88" opacity="0.41"/>
<path d="M344 19 l-4 55" stroke-width="0.59" opacity="0.28"/>
<path d="M415 29 l0 49" stroke-width="0.52" opacity="0.51"/>
<path d="M357 33 l1 28" stroke-width="0.79" opacity="0.32"/>
<path d="M395 43 l-3 58" stroke-width="0.89" opacity="0.59"/>
<path d="M15 84 l-2 36" stroke-width="0.93" opacity="0.56"/>
<path d="M95 16 l6 37" stroke-width="1.04" opacity="0.54"/>
<path d="M303 21 l-4 24" stroke-width="0.90" opacity="0.39"/>
<path d="M376 26 l3 31" stroke-width="0.47" opacity="0.41"/>
<path d="M246 3 l-5 43" stroke-width="1.02" opacity="0.34"/>
<path d="M17 86 l6 44" stroke-width="0.64" opacity="0.59"/>
<path d="M59 10 l-1 39" stroke-width="0.66" opacity="0.32"/>
<path d="M116 57 l1 27" stroke-width="0.90" opacity="0.38"/>
<path d="M297 136 l-5 51" stroke-width="1.00" opacity="0.38"/>
<path d="M192 80 l-1 55" stroke-width="0.93" opacity="0.31"/>
<path d="M457 0 l2 20" stroke-width="0.67" opacity="0.30"/>
<path d="M231 114 l-6 21" stroke-width="0.99" opacity="0.27"/>
<path d="M137 2 l-6 45" stroke-width="0.92" opacity="0.52"/>
<path d="M423 39 l2 59" stroke-width="0.85" opacity="0.35"/>
<path d="M30 83 l-2 43" stroke-width="0.79" opacity="0.46"/>
<path d="M30 22 l-4 55" stroke-width="0.70" opacity="0.51"/>
<path d="M357 80 l3 29" stroke-width="1.08" opacity="0.31"/>
<path d="M459 109 l-5 22" stroke-width="0.97" opacity="0.44"/>
<path d="M185 6 l0 37" stroke-width="0.49" opacity="0.41"/>
<path d="M354 3 l0 22" stroke-width="0.96" opacity="0.28"/>
<path d="M17 42 l-2 23" stroke-width="0.96" opacity="0.57"/>
<path d="M428 19 l-3 41" stroke-width="0.63" opacity="0.39"/>
<path d="M392 84 l-5 45" stroke-width="0.71" opacity="0.65"/>
<path d="M360 88 l0 56" stroke-width="0.98" opacity="0.37"/>
<path d="M79 29 l-5 33" stroke-width="0.80" opacity="0.27"/>
<path d="M407 31 l-2 33" stroke-width="0.63" opacity="0.55"/>
<path d="M251 12 l5 32" stroke-width="0.63" opacity="0.28"/>
<path d="M490 66 l5 59" stroke-width="0.97" opacity="0.62"/>
<path d="M461 16 l0 42" stroke-width="1.09" opacity="0.56"/>
<path d="M351 40 l5 45" stroke-width="0.68" opacity="0.44"/>
<path d="M490 13 l-4 47" stroke-width="0.79" opacity="0.61"/>
<path d="M92 45 l-5 22" stroke-width="0.78" opacity="0.36"/>
<path d="M53 25 l0 21" stroke-width="0.45" opacity="0.59"/>
<path d="M322 22 l-6 33" stroke-width="0.99" opacity="0.53"/>
<path d="M142 80 l4 55" stroke-width="0.70" opacity="0.52"/>
<path d="M272 113 l3 52" stroke-width="1.10" opacity="0.35"/>
<path d="M101 86 l0 38" stroke-width="0.68" opacity="0.60"/>
<path d="M398 4 l4 37" stroke-width="0.53" opacity="0.37"/>
<path d="M346 0 l-2 55" stroke-width="0.92" opacity="0.64"/>
<path d="M272 47 l0 41" stroke-width="0.97" opacity="0.63"/>
<path d="M204 29 l-2 39" stroke-width="0.81" opacity="0.47"/>
<path d="M488 16 l6 49" stroke-width="0.80" opacity="0.40"/>
<path d="M201 126 l2 56" stroke-width="1.05" opacity="0.59"/>
<path d="M192 55 l-2 49" stroke-width="0.74" opacity="0.38"/>
<path d="M228 6 l-1 19" stroke-width="0.52" opacity="0.35"/>
<path d="M429 25 l6 29" stroke-width="0.76" opacity="0.55"/>
<path d="M346 51 l-0 48" stroke-width="0.74" opacity="0.64"/>
<path d="M358 2 l6 28" stroke-width="0.42" opacity="0.35"/>
<path d="M240 57 l3 53" stroke-width="0.46" opacity="0.49"/>
<path d="M498 44 l-2 58" stroke-width="1.08" opacity="0.29"/>
<path d="M276 42 l-5 29" stroke-width="0.60" opacity="0.44"/>
<path d="M397 101 l2 22" stroke-width="0.67" opacity="0.52"/>
<path d="M147 69 l-5 54" stroke-width="0.47" opacity="0.40"/>
<path d="M453 16 l-1 55" stroke-width="1.09" opacity="0.37"/>
<path d="M246 73 l-3 50" stroke-width="0.64" opacity="0.44"/>
<path d="M4 98 l5 59" stroke-width="0.59" opacity="0.47"/>
<path d="M220 96 l-3 30" stroke-width="0.89" opacity="0.41"/>
<path d="M65 16 l1 58" stroke-width="0.77" opacity="0.49"/>
<path d="M74 17 l2 29" stroke-width="0.55" opacity="0.40"/>
<path d="M235 31 l-4 55" stroke-width="0.89" opacity="0.46"/>
<path d="M29 34 l2 52" stroke-width="1.02" opacity="0.38"/>
<path d="M247 6 l-4 29" stroke-width="0.46" opacity="0.47"/>
<path d="M351 58 l-3 26" stroke-width="0.80" opacity="0.60"/>
<path d="M211 0 l-2 44" stroke-width="0.46" opacity="0.34"/>
<path d="M340 50 l1 40" stroke-width="0.42" opacity="0.38"/>
<path d="M70 29 l2 20" stroke-width="0.45" opacity="0.54"/>
<path d="M52 13 l-5 19" stroke-width="0.50" opacity="0.41"/>
<path d="M467 23 l2 29" stroke-width="0.76" opacity="0.38"/>
<path d="M474 42 l2 53" stroke-width="0.82" opacity="0.60"/>
<path d="M203 63 l0 42" stroke-width="0.78" opacity="0.41"/>
<path d="M449 52 l-5 39" stroke-width="0.52" opacity="0.34"/>
<path d="M217 21 l-3 40" stroke-width="0.73" opacity="0.41"/>
<path d="M52 37 l1 41" stroke-width="0.99" opacity="0.54"/>
<path d="M342 1 l2 25" stroke-width="1.04" opacity="0.31"/>
<path d="M440 27 l4 32" stroke-width="1.02" opacity="0.31"/>
<path d="M425 25 l-5 43" stroke-width="0.59" opacity="0.52"/>
<path d="M400 1 l5 57" stroke-width="0.85" opacity="0.40"/>
<path d="M281 61 l3 43" stroke-width="0.70" opacity="0.62"/>
<path d="M204 5 l-0 20" stroke-width="0.89" opacity="0.25"/>
<path d="M21 2 l0 33" stroke-width="0.59" opacity="0.64"/>
<path d="M454 79 l4 28" stroke-width="0.97" opacity="0.35"/>
<path d="M281 9 l3 56" stroke-width="0.62" opacity="0.60"/>
<path d="M173 98 l3 20" stroke-width="0.70" opacity="0.40"/>
<path d="M147 54 l2 45" stroke-width="0.76" opacity="0.27"/>
<path d="M337 23 l2 38" stroke-width="0.64" opacity="0.53"/>
<path d="M488 3 l-1 53" stroke-width="0.52" opacity="0.54"/>
<path d="M50 49 l2 51" stroke-width="0.72" opacity="0.44"/>
<path d="M246 84 l-4 37" stroke-width="0.78" opacity="0.48"/>
<path d="M463 19 l-1 23" stroke-width="0.42" opacity="0.28"/>
<path d="M91 77 l4 30" stroke-width="0.51" opacity="0.64"/>
<path d="M413 3 l-1 45" stroke-width="0.92" opacity="0.62"/>
<path d="M269 0 l4 59" stroke-width="1.04" opacity="0.51"/>
<path d="M171 28 l5 58" stroke-width="0.52" opacity="0.48"/>
<path d="M257 51 l5 48" stroke-width="0.89" opacity="0.53"/>
<path d="M327 20 l3 23" stroke-width="0.85" opacity="0.40"/>
<path d="M280 46 l6 28" stroke-width="0.41" opacity="0.63"/>
<path d="M156 17 l1 59" stroke-width="0.90" opacity="0.38"/>
<path d="M267 34 l-1 25" stroke-width="0.68" opacity="0.41"/>
<path d="M100 44 l-4 42" stroke-width="0.99" opacity="0.56"/>
<path d="M311 37 l-4 29" stroke-width="0.64" opacity="0.36"/>
<path d="M234 3 l-3 26" stroke-width="0.96" opacity="0.47"/>
<path d="M99 56 l1 41" stroke-width="0.67" opacity="0.33"/>
<path d="M313 9 l-5 49" stroke-width="0.67" opacity="0.52"/>
<path d="M296 10 l-5 28" stroke-width="0.67" opacity="0.36"/>
<path d="M331 53 l4 27" stroke-width="0.90" opacity="0.39"/>
<path d="M268 11 l-3 37" stroke-width="0.60" opacity="0.57"/>
<path d="M296 70 l-3 20" stroke-width="0.98" opacity="0.38"/>
<path d="M406 90 l-5 54" stroke-width="0.84" opacity="0.35"/>
<path d="M104 9 l5 48" stroke-width="0.97" opacity="0.40"/>
<path d="M462 14 l-3 18" stroke-width="0.48" opacity="0.33"/>
<path d="M382 27 l1 29" stroke-width="0.85" opacity="0.52"/>
<path d="M461 65 l6 50" stroke-width="0.69" opacity="0.36"/>
<path d="M49 16 l1 37" stroke-width="0.43" opacity="0.34"/>
<path d="M411 75 l5 22" stroke-width="0.87" opacity="0.27"/>
<path d="M27 271 l4 44" stroke-width="0.51" opacity="0.38"/>
<path d="M12 334 l-1 55" stroke-width="0.99" opacity="0.47"/>
<path d="M54 41 l-0 53" stroke-width="0.51" opacity="0.25"/>
<path d="M17 580 l-4 40" stroke-width="0.99" opacity="0.49"/>
<path d="M60 254 l2 54" stroke-width="0.79" opacity="0.34"/>
<path d="M28 580 l3 42" stroke-width="0.95" opacity="0.37"/>
<path d="M35 273 l-1 26" stroke-width="0.75" opacity="0.50"/>
<path d="M52 178 l2 51" stroke-width="0.65" opacity="0.55"/>
<path d="M35 506 l-3 43" stroke-width="0.41" opacity="0.52"/>
<path d="M22 215 l0 45" stroke-width="0.75" opacity="0.37"/>
<path d="M51 406 l-0 40" stroke-width="0.89" opacity="0.20"/>
<path d="M20 103 l-2 56" stroke-width="0.49" opacity="0.24"/>
<path d="M31 203 l3 60" stroke-width="0.91" opacity="0.41"/>
<path d="M4 24 l1 53" stroke-width="0.56" opacity="0.54"/>
<path d="M34 352 l1 23" stroke-width="0.50" opacity="0.53"/>
<path d="M5 171 l-2 49" stroke-width="0.56" opacity="0.27"/>
<path d="M29 177 l2 32" stroke-width="0.92" opacity="0.54"/>
<path d="M5 526 l-1 57" stroke-width="0.92" opacity="0.25"/>
<path d="M22 283 l2 21" stroke-width="0.59" opacity="0.46"/>
<path d="M2 568 l1 47" stroke-width="0.92" opacity="0.35"/>
<path d="M12 623 l-3 25" stroke-width="0.75" opacity="0.24"/>
<path d="M12 171 l-4 58" stroke-width="0.60" opacity="0.54"/>
<path d="M13 463 l3 20" stroke-width="0.99" opacity="0.21"/>
<path d="M33 162 l-4 51" stroke-width="0.45" opacity="0.49"/>
<path d="M32 22 l-2 32" stroke-width="0.69" opacity="0.33"/>
<path d="M39 251 l-2 27" stroke-width="0.81" opacity="0.30"/>
<path d="M26 597 l-0 21" stroke-width="0.41" opacity="0.24"/>
<path d="M40 400 l4 37" stroke-width="0.82" opacity="0.32"/>
<path d="M25 47 l2 52" stroke-width="0.97" opacity="0.49"/>
<path d="M33 361 l0 39" stroke-width="0.81" opacity="0.40"/>
<path d="M27 549 l-0 53" stroke-width="0.81" opacity="0.38"/>
<path d="M48 361 l1 30" stroke-width="0.59" opacity="0.41"/>
<path d="M27 29 l3 29" stroke-width="0.67" opacity="0.44"/>
<path d="M42 592 l1 35" stroke-width="0.66" opacity="0.42"/>
<path d="M47 228 l-4 50" stroke-width="0.85" opacity="0.31"/>
<path d="M20 10 l1 51" stroke-width="0.92" opacity="0.27"/>
<path d="M7 52 l4 46" stroke-width="0.48" opacity="0.44"/>
<path d="M36 614 l-2 58" stroke-width="0.82" opacity="0.26"/>
<path d="M30 490 l1 35" stroke-width="0.58" opacity="0.35"/>
<path d="M28 337 l3 23" stroke-width="0.52" opacity="0.53"/>
<path d="M37 389 l1 30" stroke-width="0.64" opacity="0.27"/>
<path d="M59 97 l2 55" stroke-width="0.40" opacity="0.45"/>
<path d="M30 197 l1 21" stroke-width="0.62" opacity="0.39"/>
<path d="M31 560 l-1 44" stroke-width="0.75" opacity="0.30"/>
<path d="M17 351 l-4 32" stroke-width="0.45" opacity="0.37"/>
<path d="M52 321 l2 50" stroke-width="0.99" opacity="0.29"/>
<path d="M14 239 l-3 41" stroke-width="0.71" opacity="0.25"/>
<path d="M59 590 l-3 20" stroke-width="0.44" opacity="0.46"/>
<path d="M4 546 l-4 42" stroke-width="0.60" opacity="0.21"/>
<path d="M13 6 l-2 32" stroke-width="0.73" opacity="0.29"/>
<path d="M13 149 l3 30" stroke-width="0.73" opacity="0.36"/>
<path d="M24 212 l-4 27" stroke-width="0.78" opacity="0.47"/>
<path d="M11 140 l3 24" stroke-width="0.88" opacity="0.51"/>
<path d="M50 94 l-3 22" stroke-width="0.57" opacity="0.32"/>
<path d="M27 377 l2 47" stroke-width="0.47" opacity="0.27"/>
<path d="M7 478 l4 52" stroke-width="0.53" opacity="0.30"/>
<path d="M25 161 l-2 21" stroke-width="0.55" opacity="0.27"/>
<path d="M27 224 l3 46" stroke-width="0.77" opacity="0.50"/>
<path d="M26 247 l-2 53" stroke-width="0.93" opacity="0.52"/>
<path d="M7 387 l-3 52" stroke-width="0.93" opacity="0.39"/>
<path d="M56 589 l2 35" stroke-width="0.67" opacity="0.32"/>
<path d="M28 253 l-4 25" stroke-width="0.50" opacity="0.40"/>
<path d="M43 558 l-3 38" stroke-width="0.78" opacity="0.25"/>
<path d="M37 51 l-2 46" stroke-width="0.50" opacity="0.50"/>
<path d="M26 198 l0 55" stroke-width="0.95" opacity="0.50"/>
<path d="M4 438 l-3 41" stroke-width="0.99" opacity="0.45"/>
<path d="M21 123 l4 40" stroke-width="0.92" opacity="0.50"/>
<path d="M38 500 l1 34" stroke-width="0.47" opacity="0.53"/>
<path d="M16 21 l1 59" stroke-width="0.53" opacity="0.29"/>
<path d="M20 543 l-1 34" stroke-width="0.43" opacity="0.53"/>
<path d="M0 447 l-3 25" stroke-width="0.62" opacity="0.51"/>
<path d="M14 90 l-2 40" stroke-width="0.94" opacity="0.39"/>
<path d="M33 578 l-1 55" stroke-width="0.75" opacity="0.37"/>
<path d="M21 328 l-1 23" stroke-width="0.52" opacity="0.47"/>
<path d="M12 85 l-3 35" stroke-width="0.43" opacity="0.33"/>
<path d="M41 390 l3 23" stroke-width="0.79" opacity="0.27"/>
<path d="M35 219 l3 47" stroke-width="0.99" opacity="0.21"/>
<path d="M29 202 l-4 22" stroke-width="0.62" opacity="0.40"/>
<path d="M4 87 l-1 50" stroke-width="0.74" opacity="0.55"/>
<path d="M53 387 l1 39" stroke-width="0.65" opacity="0.23"/>
<path d="M40 40 l3 21" stroke-width="0.51" opacity="0.31"/>
<path d="M50 200 l-2 32" stroke-width="0.69" opacity="0.53"/>
<path d="M38 188 l-4 37" stroke-width="0.96" opacity="0.28"/>
<path d="M39 228 l1 43" stroke-width="0.77" opacity="0.44"/>
<path d="M21 207 l-1 41" stroke-width="0.74" opacity="0.51"/>
<path d="M27 253 l3 59" stroke-width="0.55" opacity="0.46"/>
<path d="M44 158 l-4 40" stroke-width="0.74" opacity="0.44"/>
<path d="M48 587 l1 40" stroke-width="0.41" opacity="0.39"/>
<path d="M45 360 l-3 44" stroke-width="0.43" opacity="0.45"/>
<path d="M26 526 l2 46" stroke-width="0.58" opacity="0.23"/>
<path d="M21 485 l-3 38" stroke-width="0.90" opacity="0.53"/>
<path d="M58 363 l-3 40" stroke-width="0.41" opacity="0.28"/>
<path d="M4 561 l1 40" stroke-width="0.99" opacity="0.55"/>
<path d="M16 79 l4 33" stroke-width="0.51" opacity="0.52"/>
<path d="M18 395 l0 37" stroke-width="0.67" opacity="0.39"/>
<path d="M37 109 l4 44" stroke-width="0.87" opacity="0.30"/>
<path d="M0 99 l4 25" stroke-width="0.63" opacity="0.43"/>
<path d="M37 470 l-0 53" stroke-width="0.67" opacity="0.49"/>
<path d="M43 35 l-3 36" stroke-width="0.67" opacity="0.26"/>
<path d="M51 287 l-4 28" stroke-width="0.99" opacity="0.36"/>
<path d="M55 249 l2 27" stroke-width="0.76" opacity="0.26"/>
<path d="M33 496 l2 23" stroke-width="0.96" opacity="0.28"/>
<path d="M26 544 l3 24" stroke-width="0.43" opacity="0.36"/>
<path d="M28 595 l0 27" stroke-width="0.72" opacity="0.35"/>
<path d="M44 568 l-0 26" stroke-width="0.49" opacity="0.54"/>
<path d="M13 391 l2 29" stroke-width="0.67" opacity="0.51"/>
<path d="M6 66 l-4 26" stroke-width="0.62" opacity="0.31"/>
<path d="M1 179 l-0 38" stroke-width="0.84" opacity="0.31"/>
<path d="M19 372 l2 27" stroke-width="0.69" opacity="0.36"/>
<path d="M32 294 l0 33" stroke-width="0.89" opacity="0.53"/>
<path d="M38 358 l2 33" stroke-width="0.76" opacity="0.36"/>
<path d="M24 310 l0 29" stroke-width="0.54" opacity="0.27"/>
<path d="M15 380 l2 56" stroke-width="0.86" opacity="0.31"/>
<path d="M21 603 l-1 44" stroke-width="0.80" opacity="0.34"/>
<path d="M51 503 l-2 29" stroke-width="0.64" opacity="0.44"/>
<path d="M11 429 l-1 56" stroke-width="0.98" opacity="0.41"/>
<path d="M50 499 l-2 23" stroke-width="0.77" opacity="0.33"/>
<path d="M18 455 l-1 52" stroke-width="0.46" opacity="0.34"/>
<path d="M32 98 l2 59" stroke-width="0.85" opacity="0.25"/>
<path d="M33 280 l1 48" stroke-width="0.98" opacity="0.53"/>
<path d="M490 133 l4 26" stroke-width="0.98" opacity="0.24"/>
<path d="M492 374 l-3 33" stroke-width="0.88" opacity="0.45"/>
<path d="M492 203 l-1 27" stroke-width="0.54" opacity="0.37"/>
<path d="M445 313 l-3 41" stroke-width="0.74" opacity="0.25"/>
<path d="M492 231 l3 34" stroke-width="0.44" opacity="0.37"/>
<path d="M447 339 l2 28" stroke-width="0.95" opacity="0.20"/>
<path d="M497 446 l3 28" stroke-width="0.88" opacity="0.48"/>
<path d="M493 494 l-1 24" stroke-width="0.83" opacity="0.55"/>
<path d="M461 335 l1 26" stroke-width="0.62" opacity="0.32"/>
<path d="M475 480 l-1 42" stroke-width="0.52" opacity="0.22"/>
<path d="M499 152 l1 38" stroke-width="0.77" opacity="0.40"/>
<path d="M451 35 l3 20" stroke-width="0.66" opacity="0.48"/>
<path d="M448 266 l2 46" stroke-width="0.94" opacity="0.47"/>
<path d="M497 374 l-0 48" stroke-width="0.71" opacity="0.40"/>
<path d="M450 224 l-2 46" stroke-width="0.66" opacity="0.25"/>
<path d="M492 12 l-2 39" stroke-width="0.42" opacity="0.22"/>
<path d="M441 510 l-1 39" stroke-width="0.76" opacity="0.23"/>
<path d="M460 345 l4 46" stroke-width="0.73" opacity="0.34"/>
<path d="M469 584 l-0 49" stroke-width="0.66" opacity="0.22"/>
<path d="M448 379 l-1 24" stroke-width="0.46" opacity="0.52"/>
<path d="M461 71 l-3 40" stroke-width="0.95" opacity="0.28"/>
<path d="M463 197 l1 42" stroke-width="0.64" opacity="0.21"/>
<path d="M483 381 l1 38" stroke-width="0.56" opacity="0.55"/>
<path d="M442 206 l-0 41" stroke-width="0.56" opacity="0.26"/>
<path d="M473 452 l1 27" stroke-width="0.71" opacity="0.43"/>
<path d="M460 486 l-1 47" stroke-width="0.76" opacity="0.37"/>
<path d="M482 403 l-3 26" stroke-width="0.98" opacity="0.51"/>
<path d="M484 529 l3 52" stroke-width="0.72" opacity="0.31"/>
<path d="M440 68 l4 54" stroke-width="0.67" opacity="0.46"/>
<path d="M467 583 l-3 59" stroke-width="0.72" opacity="0.47"/>
<path d="M496 398 l-0 20" stroke-width="0.56" opacity="0.54"/>
<path d="M466 443 l-3 47" stroke-width="0.76" opacity="0.42"/>
<path d="M444 441 l-0 44" stroke-width="0.72" opacity="0.41"/>
<path d="M489 435 l-4 25" stroke-width="0.43" opacity="0.39"/>
<path d="M453 195 l-3 26" stroke-width="0.92" opacity="0.23"/>
<path d="M459 226 l1 31" stroke-width="0.48" opacity="0.40"/>
<path d="M449 159 l-2 57" stroke-width="0.41" opacity="0.41"/>
<path d="M472 181 l-1 52" stroke-width="0.51" opacity="0.47"/>
<path d="M462 22 l3 37" stroke-width="0.91" opacity="0.32"/>
<path d="M445 227 l4 52" stroke-width="0.54" opacity="0.53"/>
<path d="M448 234 l-1 29" stroke-width="0.55" opacity="0.44"/>
<path d="M469 627 l-3 47" stroke-width="0.94" opacity="0.47"/>
<path d="M481 1 l2 48" stroke-width="1.00" opacity="0.51"/>
<path d="M459 511 l-1 21" stroke-width="0.86" opacity="0.36"/>
<path d="M492 554 l3 46" stroke-width="0.93" opacity="0.45"/>
<path d="M469 279 l-3 30" stroke-width="0.74" opacity="0.26"/>
<path d="M461 229 l1 56" stroke-width="0.66" opacity="0.39"/>
<path d="M455 270 l1 58" stroke-width="0.48" opacity="0.24"/>
<path d="M463 187 l1 28" stroke-width="0.56" opacity="0.41"/>
<path d="M450 169 l-3 51" stroke-width="0.49" opacity="0.45"/>
<path d="M443 501 l3 21" stroke-width="0.80" opacity="0.52"/>
<path d="M473 493 l2 31" stroke-width="0.88" opacity="0.34"/>
<path d="M498 621 l1 25" stroke-width="0.86" opacity="0.54"/>
<path d="M450 315 l-2 21" stroke-width="0.88" opacity="0.34"/>
<path d="M460 54 l3 23" stroke-width="0.77" opacity="0.32"/>
<path d="M496 27 l-4 32" stroke-width="0.58" opacity="0.39"/>
<path d="M449 397 l3 27" stroke-width="0.78" opacity="0.51"/>
<path d="M464 160 l4 45" stroke-width="0.82" opacity="0.31"/>
<path d="M450 635 l-1 32" stroke-width="0.40" opacity="0.37"/>
<path d="M453 559 l-3 30" stroke-width="0.50" opacity="0.29"/>
<path d="M490 130 l0 57" stroke-width="0.91" opacity="0.42"/>
<path d="M445 202 l-2 22" stroke-width="0.53" opacity="0.48"/>
<path d="M481 448 l-2 45" stroke-width="0.71" opacity="0.48"/>
<path d="M495 285 l-3 29" stroke-width="0.71" opacity="0.45"/>
<path d="M499 356 l4 38" stroke-width="0.72" opacity="0.27"/>
<path d="M487 156 l1 56" stroke-width="0.56" opacity="0.32"/>
<path d="M498 184 l-4 51" stroke-width="0.99" opacity="0.21"/>
<path d="M473 49 l-2 30" stroke-width="0.92" opacity="0.27"/>
<path d="M446 125 l1 47" stroke-width="0.80" opacity="0.21"/>
<path d="M498 626 l-2 39" stroke-width="0.90" opacity="0.53"/>
<path d="M492 6 l-4 25" stroke-width="0.95" opacity="0.23"/>
<path d="M488 345 l-4 31" stroke-width="0.56" opacity="0.39"/>
<path d="M468 559 l0 31" stroke-width="0.51" opacity="0.37"/>
<path d="M446 252 l-2 21" stroke-width="0.43" opacity="0.31"/>
<path d="M476 140 l3 49" stroke-width="0.76" opacity="0.49"/>
<path d="M496 563 l2 25" stroke-width="0.65" opacity="0.34"/>
<path d="M497 174 l-2 48" stroke-width="0.97" opacity="0.52"/>
<path d="M466 15 l-2 41" stroke-width="0.72" opacity="0.26"/>
<path d="M471 56 l-4 54" stroke-width="0.93" opacity="0.21"/>
<path d="M450 513 l-4 43" stroke-width="0.68" opacity="0.26"/>
<path d="M466 524 l2 57" stroke-width="0.98" opacity="0.43"/>
<path d="M496 559 l-1 39" stroke-width="0.71" opacity="0.33"/>
<path d="M465 523 l3 38" stroke-width="0.97" opacity="0.32"/>
<path d="M466 636 l-1 45" stroke-width="0.46" opacity="0.44"/>
<path d="M452 384 l-3 37" stroke-width="0.75" opacity="0.22"/>
<path d="M446 488 l1 51" stroke-width="0.97" opacity="0.36"/>
<path d="M447 328 l1 31" stroke-width="0.75" opacity="0.47"/>
<path d="M492 540 l-3 47" stroke-width="0.83" opacity="0.46"/>
<path d="M477 313 l4 30" stroke-width="0.57" opacity="0.21"/>
<path d="M462 54 l1 29" stroke-width="0.84" opacity="0.26"/>
<path d="M462 238 l2 38" stroke-width="0.89" opacity="0.37"/>
<path d="M450 425 l1 43" stroke-width="0.96" opacity="0.21"/>
<path d="M498 12 l-2 42" stroke-width="0.77" opacity="0.44"/>
<path d="M448 11 l-2 59" stroke-width="0.61" opacity="0.50"/>
<path d="M499 456 l0 36" stroke-width="1.00" opacity="0.28"/>
<path d="M490 253 l-4 42" stroke-width="0.77" opacity="0.26"/>
<path d="M487 536 l3 47" stroke-width="0.98" opacity="0.35"/>
<path d="M464 537 l2 36" stroke-width="0.71" opacity="0.30"/>
<path d="M444 216 l-3 53" stroke-width="0.85" opacity="0.26"/>
<path d="M450 276 l0 40" stroke-width="0.70" opacity="0.26"/>
<path d="M455 634 l-2 34" stroke-width="0.82" opacity="0.50"/>
<path d="M483 353 l-1 42" stroke-width="0.93" opacity="0.45"/>
<path d="M499 144 l1 31" stroke-width="0.93" opacity="0.26"/>
<path d="M452 638 l-2 21" stroke-width="0.89" opacity="0.24"/>
<path d="M477 97 l-3 24" stroke-width="0.73" opacity="0.43"/>
<path d="M497 503 l-4 39" stroke-width="0.85" opacity="0.27"/>
<path d="M493 381 l3 55" stroke-width="0.96" opacity="0.34"/>
<path d="M451 53 l-0 34" stroke-width="0.66" opacity="0.45"/>
<path d="M474 466 l-2 26" stroke-width="0.43" opacity="0.54"/>
<path d="M496 619 l1 59" stroke-width="0.75" opacity="0.54"/>
<path d="M457 93 l3 25" stroke-width="0.52" opacity="0.53"/>
<path d="M463 149 l3 48" stroke-width="0.86" opacity="0.30"/>
<path d="M492 544 l-1 40" stroke-width="0.82" opacity="0.21"/>
<path d="M478 48 l-3 56" stroke-width="0.67" opacity="0.41"/>
<path d="M448 273 l3 56" stroke-width="0.45" opacity="0.41"/>
<path d="M445 497 l0 39" stroke-width="0.51" opacity="0.20"/>
<path d="M483 15 l2 36" stroke-width="0.73" opacity="0.29"/>
<path d="M445 623 l-2 35" stroke-width="0.46" opacity="0.34"/>
<path d="M456 155 l-1 47" stroke-width="0.42" opacity="0.45"/>
<path d="M483 408 l2 55" stroke-width="0.94" opacity="0.44"/>
</g>
<path d="M60 300 V130.0 Q60 90 100.0 90 Q140 90 140 130.0 V300 Z" fill="#efebe2" stroke="#efebe2" stroke-width="3"/>
<g stroke="#0a0c10" stroke-width=".7" opacity=".3"><path d="M60 90 H140"/><path d="M60 96 H140"/><path d="M60 102 H140"/><path d="M60 108 H140"/><path d="M60 114 H140"/><path d="M60 120 H140"/><path d="M60 126 H140"/><path d="M60 132 H140"/><path d="M60 138 H140"/><path d="M60 144 H140"/><path d="M60 150 H140"/><path d="M60 156 H140"/><path d="M60 162 H140"/><path d="M60 168 H140"/><path d="M60 174 H140"/><path d="M60 180 H140"/><path d="M60 186 H140"/><path d="M60 192 H140"/><path d="M60 198 H140"/><path d="M60 204 H140"/><path d="M60 210 H140"/><path d="M60 216 H140"/><path d="M60 222 H140"/><path d="M60 228 H140"/><path d="M60 234 H140"/><path d="M60 240 H140"/><path d="M60 246 H140"/><path d="M60 252 H140"/><path d="M60 258 H140"/><path d="M60 264 H140"/><path d="M60 270 H140"/><path d="M60 276 H140"/><path d="M60 282 H140"/><path d="M60 288 H140"/><path d="M60 294 H140"/></g>
<g stroke="#efebe2" fill="none" stroke-width=".5" opacity="0.3">
<path d="M0 520 Q250 527 500 520"/>
<path d="M0 530 Q250 537 500 530"/>
<path d="M0 540 Q250 547 500 540"/>
<path d="M0 550 Q250 557 500 550"/>
<path d="M0 560 Q250 567 500 560"/>
<path d="M0 570 Q250 577 500 570"/>
<path d="M0 580 Q250 587 500 580"/>
<path d="M0 590 Q250 597 500 590"/>
<path d="M0 600 Q250 607 500 600"/>
<path d="M0 610 Q250 617 500 610"/>
<path d="M0 620 Q250 627 500 620"/>
<path d="M0 630 Q250 637 500 630"/>
<path d="M0 640 Q250 647 500 640"/>
<path d="M0 650 Q250 657 500 650"/>
<path d="M0 660 Q250 667 500 660"/>
<path d="M0 670 Q250 677 500 670"/>
<path d="M0 680 Q250 687 500 680"/>
<path d="M0 690 Q250 697 500 690"/>
<path d="M0 700 Q250 707 500 700"/>
<path d="M0 710 Q250 717 500 710"/>
<path d="M0 720 Q250 727 500 720"/>
<path d="M0 730 Q250 737 500 730"/>
<path d="M0 740 Q250 747 500 740"/>
<path d="M0 750 Q250 757 500 750"/>
<path d="M0 760 Q250 767 500 760"/>
<path d="M0 770 Q250 777 500 770"/>
<path d="M0 780 Q250 787 500 780"/>
<path d="M0 790 Q250 797 500 790"/>
</g>
<rect x="370" y="650" width="120" height="12" fill="#0a0c10" stroke="#efebe2" stroke-width="2"/><path d="M380 662 V740 M480 662 V740" stroke="#efebe2" stroke-width="4"/>
<path d="M385 646 L435 641" stroke="#efebe2" stroke-width="3"/><path d="M424 647 L423 637" stroke="#efebe2" stroke-width="3"/>
<path d="M430 646 L480 649" stroke="#efebe2" stroke-width="3"/><path d="M469 654 L469 644" stroke="#efebe2" stroke-width="3"/>
<g stroke="#efebe2" stroke-width="1.6" fill="#0a0c10">
<path d="M81 740 Q58 505 141 364 Q180 345 219 364 Q302 505 279 740 Z"/>
<g stroke-width=".6" opacity=".6"><path d="M109 740 L127 482"/><path d="M133 740 L144 482"/><path d="M156 740 L162 482"/><path d="M180 740 L180 482"/><path d="M204 740 L198 482"/><path d="M227 740 L216 482"/><path d="M251 740 L233 482"/></g>
<circle cx="180" cy="326" r="35.2"/>
<path d="M144.8 322.9 Q180.0 259.4 215.2 322.9 Q180.0 294.7 144.8 322.9 Z" fill="#efebe2"/>
<g fill="#efebe2" stroke="none"><circle cx="167.7" cy="326.4" r="1.4"/><circle cx="192.3" cy="326.4" r="1.4"/></g><path d="M169.4 344.0 Q180.0 351.1 190.6 344.0" fill="none" stroke-width=".8"/>
</g>
<g stroke="#efebe2" stroke-width="1.6" fill="#0a0c10">
<path d="M228 735 Q209 520 277 391 Q310 374 343 391 Q411 520 392 735 Z"/>
<g stroke-width=".6" opacity=".6"><path d="M251 735 L266 498"/><path d="M271 735 L281 498"/><path d="M290 735 L295 498"/><path d="M310 735 L310 498"/><path d="M330 735 L325 498"/><path d="M349 735 L339 498"/><path d="M369 735 L354 498"/></g>
<circle cx="310" cy="357" r="32.2"/>
<path d="M277.8 353.4 Q310.0 295.3 342.2 353.4 Q310.0 327.6 277.8 353.4 Z" fill="#efebe2"/>
<g fill="#efebe2" stroke="none"><circle cx="298.7" cy="356.6" r="1.4"/><circle cx="321.3" cy="356.6" r="1.4"/></g><path d="M300.3 372.7 Q310.0 379.2 319.7 372.7" fill="none" stroke-width=".8"/>
</g>
<path d="M150 380 L128 490" stroke="#efebe2" stroke-width="17.5" stroke-linecap="round" fill="none"/>
<path d="M150 380 L128 490" stroke="#0a0c10" stroke-width="14" stroke-linecap="round" fill="none"/>
<circle cx="128" cy="490" r="7.7" fill="#efebe2"/>
<path d="M210 380 L236 492" stroke="#efebe2" stroke-width="17.5" stroke-linecap="round" fill="none"/>
<path d="M210 380 L236 492" stroke="#0a0c10" stroke-width="14" stroke-linecap="round" fill="none"/>
<circle cx="236" cy="492" r="7.7" fill="#efebe2"/>
<g fill="#efebe2" stroke="none"><ellipse cx="126" cy="512" rx="2.2" ry="4.5"/><ellipse cx="238" cy="516" rx="2.2" ry="4.5"/><ellipse cx="130" cy="534" rx="2.2" ry="4.5"/><ellipse cx="236" cy="540" rx="2.2" ry="4.5"/><ellipse cx="132" cy="556" rx="2.2" ry="4.5"/></g>
<path d="M282 370 L238 470" stroke="#efebe2" stroke-width="15.5" stroke-linecap="round" fill="none"/>
<path d="M282 370 L238 470" stroke="#0a0c10" stroke-width="12" stroke-linecap="round" fill="none"/>
<rect x="180" y="770" width="320" height="22" fill="#0a0c10" opacity=".85"/><text x="340" y="786" text-anchor="middle" font-family="Georgia,serif" font-size="12" fill="#efebe2" opacity=".9">Una vista lamentable · Osmancito</text></svg>